<?xml version="1.0" encoding="UTF-8" standalone="no"?>
<svg
   xmlns:dc="http://purl.org/dc/elements/1.1/"
   xmlns:cc="http://creativecommons.org/ns#"
   xmlns:rdf="http://www.w3.org/1999/02/22-rdf-syntax-ns#"
   xmlns:svg="http://www.w3.org/2000/svg"
   xmlns="http://www.w3.org/2000/svg"
   xmlns:sodipodi="http://sodipodi.sourceforge.net/DTD/sodipodi-0.dtd"
   xmlns:inkscape="http://www.inkscape.org/namespaces/inkscape"
   fill="#000000"
   viewBox="0 0 50 50"
   width="50px"
   height="50px"
   version="1.1"
   id="svg4"
   sodipodi:docname="youtube.svg"
   inkscape:version="0.92.3 (2405546, 2018-03-11)">
  <metadata
     id="metadata10">
    <rdf:RDF>
      <cc:Work
         rdf:about="">
        <dc:format>image/svg+xml</dc:format>
        <dc:type
           rdf:resource="http://purl.org/dc/dcmitype/StillImage" />
        <dc:title />
      </cc:Work>
    </rdf:RDF>
  </metadata>
  <defs
     id="defs8" />
  <sodipodi:namedview
     pagecolor="#ffffff"
     bordercolor="#666666"
     borderopacity="1"
     objecttolerance="10"
     gridtolerance="10"
     guidetolerance="10"
     inkscape:pageopacity="0"
     inkscape:pageshadow="2"
     inkscape:window-width="1278"
     inkscape:window-height="769"
     id="namedview6"
     showgrid="false"
     inkscape:zoom="9.74"
     inkscape:cx="5.8521561"
     inkscape:cy="25"
     inkscape:window-x="0"
     inkscape:window-y="0"
     inkscape:window-maximized="1"
     inkscape:current-layer="svg4" />
  <path
     d="m 10.881356,2.0572034 3.529661,10.5889836 v 7.059322 h 2.353107 V 12.646187 L 20.293785,2.0572034 h -2.353107 l -2.353108,7.059322 -2.353107,-7.059322 z m 12.94209,4.7062147 c -1.254683,0 -1.870537,0.1976245 -2.638053,0.8272643 -0.735346,0.6204485 -0.937567,1.0984234 -0.891608,2.7023966 v 5.882769 c 0,1.171958 0.193029,1.944071 0.900799,2.628862 0.735346,0.684791 1.429329,0.900799 2.628862,0.900799 1.254684,0 1.939476,-0.216008 2.647246,-0.900799 0.735346,-0.657216 0.882415,-1.456904 0.882415,-2.628862 v -5.882769 c 0,-1.0386756 -0.183836,-2.0222015 -0.896203,-2.6794173 C 25.721558,6.9380633 24.963233,6.7634181 23.823446,6.7634181 Z m 5.882768,0 V 17.352401 c 0,1.144382 1.153575,2.353108 2.353108,2.353108 1.199533,0 1.833769,-0.602065 2.353108,-1.176554 v 1.176554 h 2.353107 V 6.7634181 H 34.41243 v 9.4124299 c -0.01378,0.804285 -0.960546,1.176553 -1.176554,1.176553 -0.243584,0 -1.176554,-0.05055 -1.176554,-1.176553 V 6.7634181 Z m -5.882768,2.3531073 c 0.353885,0 1.176553,-0.00459 1.176553,1.1765536 v 5.882769 c 0,1.139787 -0.795092,1.176553 -1.176553,1.176553 -0.353885,0 -1.176554,-0.01378 -1.176554,-1.176553 v -5.882769 c 0,-0.9605454 0.510147,-1.1765536 1.176554,-1.1765536 z M 7.3516949,22.058616 c -4.2282398,0 -7.05932206,2.803507 -7.05932206,7.059322 v 11.17726 c 0,4.255815 2.83108226,7.647599 7.05932206,7.647599 H 42.648305 c 4.22824,0 7.059322,-2.803506 7.059322,-7.059322 V 29.117938 c 0,-4.255815 -2.831082,-7.059322 -7.059322,-7.059322 z m 2.3531073,4.706214 h 7.0593218 v 2.353108 H 14.411017 V 43.236582 H 12.057909 V 29.117938 H 9.7048022 Z m 16.4717508,0 h 2.353107 v 4.706216 c 0.27116,-0.422824 0.6756,-0.758325 1.061657,-0.946758 0.376864,-0.193029 0.758325,-0.30333 1.144382,-0.30333 0.762922,0 1.36039,0.275754 1.769426,0.790496 0.409037,0.519338 0.730751,1.208726 0.730751,2.224422 v 7.059322 c 0,0.873224 -0.294139,1.415541 -0.680196,1.879728 -0.376864,0.464188 -0.942162,1.052466 -1.672912,1.061656 -1.2363,0.01378 -1.898112,-0.648024 -2.353108,-1.176553 v 1.176553 h -2.353107 z m -9.412429,3.529662 h 2.353107 v 9.41243 c 0,0.271158 0.317118,1.185745 1.176554,1.176553 0.95595,-0.0092 0.965143,-0.900799 1.176554,-1.176553 v -9.41243 h 2.353107 v 12.94209 h -2.353107 v -1.176553 c -0.436613,0.514741 -0.661811,0.675599 -1.153574,0.919183 -0.487167,0.275754 -0.983526,0.25737 -1.443117,0.25737 -0.569893,0 -1.217916,-0.514742 -1.521247,-0.900798 -0.27116,-0.353886 -0.588277,-0.716963 -0.588277,-1.452309 z m 21.412358,0 c 1.116807,0 1.902708,0.238987 2.495581,0.864031 0.60666,0.625045 0.799688,1.355795 0.799688,2.532349 v 3.662942 h -4.706214 v 1.819981 c 0,0.657216 0.08732,1.075445 0.257371,1.323623 0.160857,0.27116 0.487166,0.390652 0.919183,0.386057 0.477974,-0.0046 0.781305,-0.101109 0.942161,-0.317117 0.165452,-0.19303 0.234392,-0.739942 0.234392,-1.447714 v -0.588276 h 2.353107 v 0.698579 c 0,1.282259 -0.101109,2.23821 -0.735346,2.863254 -0.597467,0.657215 -1.530438,0.960545 -2.752952,0.960545 -1.116806,0 -1.99003,-0.330906 -2.615074,-1.011101 -0.625044,-0.680195 -0.951354,-1.613166 -0.951354,-2.812698 v -5.538075 c 0,-1.066252 0.37227,-1.856749 1.057061,-2.559923 0.551509,-0.565298 1.585588,-0.836457 2.702396,-0.836457 z m -8.470268,1.76483 c -0.648023,0 -1.167361,0.583682 -1.176554,1.176554 v 7.059322 c 0.0092,0.340098 0.528531,0.588277 1.176554,0.588277 0.648024,0 1.176554,-0.500955 1.176554,-1.148978 v -5.910344 c 0,-1.176553 -0.52853,-1.764831 -1.176554,-1.764831 z m 8.235877,0.588278 c -0.648025,0 -1.167362,0.546913 -1.176554,1.176553 v 1.176554 h 2.353107 v -1.176554 c 0,-0.721558 -0.52853,-1.176553 -1.176553,-1.176553 z"
     id="path2"
     style="fill:#ffffff;fill-opacity:1;fill-rule:evenodd;stroke-width:1.17655361"
     inkscape:connector-curvature="0" />
</svg>
